<?xml version="1.0" encoding="UTF-8"?>
<svg version="1.1" xmlns="http://www.w3.org/2000/svg" width="255" height="256">
<path d="M0 0 C0.99 0.99 0.99 0.99 2 2 C1.9214456 4.67387108 1.72012954 7.1703257 1.375 9.8125 C1.27727295 10.57570557 1.1795459 11.33891113 1.07885742 12.12524414 C-0.5975054 24.17465295 -3.64234212 35.54495443 -13.1015625 43.84375 C-19.82145851 48.68777398 -27.63430116 51.66044991 -36 51 C-36 51.66 -36 52.32 -36 53 C-35.41992188 53.26554687 -34.83984375 53.53109375 -34.2421875 53.8046875 C-21.77306945 60.45198737 -14.14580791 74.40750124 -9.890625 87.3828125 C-4.04225163 111.16251933 -9.84370256 136.13462844 -22 157 C-38.3299113 183.53881907 -63.00145416 199.02098769 -92.8371582 206.48510742 C-108.95921329 210.32317201 -127.61894771 209.92387216 -142 201.1875 C-146.80067614 197.71053971 -150.10271121 193.69186638 -152 188 C-152.8971807 177.65678825 -151.73490997 170.32828731 -147 161 C-146.09251229 159.15150941 -145.19640468 157.29738277 -144.3125 155.4375 C-143.91675781 154.65246094 -143.52101563 153.86742187 -143.11328125 153.05859375 C-139.19860361 142.30353203 -139.63773742 130.8419679 -139.54370117 119.55639648 C-139.3220289 97.14800926 -135.27570187 77.26436173 -119.484375 60.38671875 C-112.55711306 53.73175484 -104.72221354 48.93540221 -96 45 C-96.9178125 44.82984375 -97.835625 44.6596875 -98.78125 44.484375 C-113.81304578 41.51591113 -124.69426627 35.46927234 -134 23 C-136.38793178 18.97649851 -138.13610137 15.66724179 -137.75 10.9375 C-137.5025 10.298125 -137.255 9.65875 -137 9 C-130.01351849 7.38269145 -123.00845673 6.06599084 -115.9375 4.875 C-114.90044922 4.69324219 -113.86339844 4.51148438 -112.79492188 4.32421875 C-99.84287948 2.1395369 -85.24117251 2.19489439 -74 10 C-66.68514822 15.49187147 -61.44836973 21.44916448 -58 30 C-58 30.99 -58 31.98 -58 33 C-57.34 33 -56.68 33 -56 33 C-55.75636719 32.1234375 -55.51273437 31.246875 -55.26171875 30.34375 C-50.43310291 17.54717057 -38.20835048 9.32611432 -26.35546875 3.7734375 C-18.31015215 0.2884029 -8.63559626 -2.21587881 0 0 Z M-38.28125 24.203125 C-45.74088714 32.08542283 -45.74088714 32.08542283 -49 42 C-38.80761078 42.551492 -27.0203225 42.01778219 -19 35 C-12.21578801 28.53884572 -9.83133276 19.1446604 -9 10 C-20.5338881 10 -30.32684442 16.52113057 -38.28125 24.203125 Z M-125 17 C-119.95433818 25.82990819 -111.51564382 30.89854173 -101.83984375 33.60400391 C-94.65828673 35.17304477 -87.7027861 35.2311998 -80.375 35.125 C-79.18003906 35.11597656 -77.98507813 35.10695313 -76.75390625 35.09765625 C-73.83572166 35.07431077 -70.91797224 35.04156656 -68 35 C-69.11904595 28.2857243 -73.11161675 24.55899755 -78 20 C-91.55866487 10.49384545 -109.79629967 12.7711562 -125 17 Z M-114 70 C-114.57621094 70.55300781 -115.15242188 71.10601562 -115.74609375 71.67578125 C-127.21716119 83.68315834 -129.36546111 101.19391193 -129.48080444 116.99987793 C-129.6447979 135.15544013 -130.22255069 151.74013489 -139 168 C-142.14300925 173.84366905 -143.16157873 179.42740034 -142 186 C-139.32317799 191.50573619 -134.73658319 194.0224347 -129.24609375 196.2734375 C-109.42449678 202.68529321 -86.84108387 196.06328996 -69 187 C-45.989606 175.12455232 -30.63338052 156.22598792 -22 132 C-16.59305933 114.94212022 -16.01412816 97.46940376 -23.5 80.875 C-30.9516509 67.17711232 -42.45328467 57.9570926 -57.1875 53 C-78.98951806 48.02590995 -98.36915358 54.42428884 -114 70 Z " fill="#F28635" transform="translate(209,23)"/>
<path d="M0 0 C0.99 0.99 0.99 0.99 2 2 C1.9214456 4.67387108 1.72012954 7.1703257 1.375 9.8125 C1.27727295 10.57570557 1.1795459 11.33891113 1.07885742 12.12524414 C-0.70999832 24.98323279 -4.20313571 37.16034336 -14.9375 45.375 C-21.60546429 49.36662871 -30.8667693 52.54624758 -38.6796875 51.71484375 C-40.92241037 50.9845621 -42.90602554 50.08267998 -45 49 C-58.39343291 43.16240177 -71.69475876 41.30287181 -86.1875 44.0625 C-98.14548818 46.2640369 -110.02123382 43.54759576 -120.1875 36.875 C-127.91732435 31.04962513 -135.52909394 23.65554061 -138 14 C-137.75 10.9375 -137.75 10.9375 -137 9 C-130.01351849 7.38269145 -123.00845673 6.06599084 -115.9375 4.875 C-114.90044922 4.69324219 -113.86339844 4.51148438 -112.79492188 4.32421875 C-99.84287948 2.1395369 -85.24117251 2.19489439 -74 10 C-66.68514822 15.49187147 -61.44836973 21.44916448 -58 30 C-58 30.99 -58 31.98 -58 33 C-57.34 33 -56.68 33 -56 33 C-55.75636719 32.1234375 -55.51273437 31.246875 -55.26171875 30.34375 C-50.43310291 17.54717057 -38.20835048 9.32611432 -26.35546875 3.7734375 C-18.31015215 0.2884029 -8.63559626 -2.21587881 0 0 Z M-38.28125 24.203125 C-45.74088714 32.08542283 -45.74088714 32.08542283 -49 42 C-38.80761078 42.551492 -27.0203225 42.01778219 -19 35 C-12.21578801 28.53884572 -9.83133276 19.1446604 -9 10 C-20.5338881 10 -30.32684442 16.52113057 -38.28125 24.203125 Z M-125 17 C-119.95433818 25.82990819 -111.51564382 30.89854173 -101.83984375 33.60400391 C-94.65828673 35.17304477 -87.7027861 35.2311998 -80.375 35.125 C-79.18003906 35.11597656 -77.98507813 35.10695313 -76.75390625 35.09765625 C-73.83572166 35.07431077 -70.91797224 35.04156656 -68 35 C-69.11904595 28.2857243 -73.11161675 24.55899755 -78 20 C-91.55866487 10.49384545 -109.79629967 12.7711562 -125 17 Z " fill="#4EC267" transform="translate(209,23)"/>
<path d="M0 0 C10.20408909 8.45383263 16.84086423 19.84796345 20.46875 32.48828125 C20.69304687 33.23851562 20.91734375 33.98875 21.1484375 34.76171875 C26.73125498 57.16946563 19.77822341 82.07641954 8.46875 101.48828125 C2.42991437 111.3023925 -6.50552196 124.99438262 -17.53125 129.48828125 C-17.34375 127.17578125 -17.34375 127.17578125 -16.53125 124.48828125 C-14.09375 122.86328125 -14.09375 122.86328125 -11.53125 121.48828125 C-10.87125 120.49828125 -10.21125 119.50828125 -9.53125 118.48828125 C-8.54125 118.48828125 -7.55125 118.48828125 -6.53125 118.48828125 C-6.53125 117.49828125 -6.53125 116.50828125 -6.53125 115.48828125 C-5.20857273 114.47422868 -3.87400169 113.47559867 -2.53125 112.48828125 C-1.2796033 110.4049349 -1.2796033 110.4049349 -0.53125 108.48828125 C0.12875 108.48828125 0.78875 108.48828125 1.46875 108.48828125 C1.736875 107.78703125 2.005 107.08578125 2.28125 106.36328125 C3.5368949 103.32329885 4.97110123 100.41550385 6.46875 97.48828125 C4.98375 97.98328125 4.98375 97.98328125 3.46875 98.48828125 C3.13875 97.82828125 2.80875 97.16828125 2.46875 96.48828125 C2.0975 97.35453125 2.0975 97.35453125 1.71875 98.23828125 C0.46875 100.48828125 0.46875 100.48828125 -1.65625 102.48828125 C-3.98721075 104.51772872 -3.98721075 104.51772872 -3.53125 108.48828125 C-5.71875 109.92578125 -5.71875 109.92578125 -8.53125 111.48828125 C-9.294375 112.25140625 -10.0575 113.01453125 -10.84375 113.80078125 C-15.38229811 118.33932936 -20.31743537 122.54646418 -26.53125 124.48828125 C-23.90620846 121.78369299 -21.38840364 119.37686109 -18.40625 117.05078125 C-1.65200617 102.70040719 8.96858558 80.16470679 11.46875 58.48828125 C12.58468195 41.81368269 8.79537521 26.6626762 -2.03125 13.73828125 C-12.1442417 3.21468688 -24.97625494 -2.42357896 -39.51293945 -2.85888672 C-56.31216002 -3.04454946 -68.99287188 1.65897158 -81.359375 13.296875 C-83.94865241 15.90943727 -86.28938815 18.57386084 -88.53125 21.48828125 C-89.36377231 19.15721877 -89.68367486 17.91784223 -88.84375 15.55078125 C-87.21902833 12.9976472 -85.58240765 10.7204234 -83.53125 8.48828125 C-82.479375 8.27171875 -82.479375 8.27171875 -81.40625 8.05078125 C-80.7875 7.86515625 -80.16875 7.67953125 -79.53125 7.48828125 C-78.2266844 4.49212179 -78.2266844 4.49212179 -77.53125 1.48828125 C-80.71793502 1.15714449 -80.71793502 1.15714449 -83.0546875 3.71875 C-84.01291307 4.6969386 -84.96316209 5.68299006 -85.90625 6.67578125 C-86.37546875 7.15853516 -86.8446875 7.64128906 -87.328125 8.13867188 C-88.27352933 9.11149816 -89.21354972 10.08958475 -90.14819336 11.07275391 C-91.44354614 12.39851833 -92.81181508 13.65191697 -94.18359375 14.8984375 C-96.91028039 17.90641294 -98.30260253 20.99809998 -99.71875 24.73828125 C-102.28831215 31.36681232 -102.28831215 31.36681232 -104.53125 32.48828125 C-102.87925652 18.99028572 -93.09222781 7.66642536 -82.8828125 -0.67578125 C-58.66754351 -18.18528344 -24.15279011 -18.2191803 0 0 Z " fill="#EFD259" transform="translate(178.53125,78.51171875)"/>
<path d="M0 0 C0 1.65 0 3.3 0 5 C0.66 5 1.32 5 2 5 C2 5.66 2 6.32 2 7 C2.66 7 3.32 7 4 7 C6.03993514 11.92984325 7.40652968 15.57960425 7 21 C7.99 21 8.98 21 10 21 C14.63798417 44.67616112 7.6182723 69.60687723 -5.25390625 89.578125 C-11.05636121 98.20141483 -19.09632411 109.96343068 -29 114 C-28.8125 111.6875 -28.8125 111.6875 -28 109 C-25.5625 107.375 -25.5625 107.375 -23 106 C-22.34 105.01 -21.68 104.02 -21 103 C-20.01 103 -19.02 103 -18 103 C-18 102.01 -18 101.02 -18 100 C-16.67732273 98.98594743 -15.34275169 97.98731742 -14 97 C-12.7483533 94.91665365 -12.7483533 94.91665365 -12 93 C-11.34 93 -10.68 93 -10 93 C-9.731875 92.29875 -9.46375 91.5975 -9.1875 90.875 C-7.9318551 87.8350176 -6.49764877 84.9272226 -5 82 C-6.485 82.495 -6.485 82.495 -8 83 C-8.495 82.01 -8.495 82.01 -9 81 C-9.2475 81.5775 -9.495 82.155 -9.75 82.75 C-11 85 -11 85 -13.125 87 C-15.45596075 89.02944747 -15.45596075 89.02944747 -15 93 C-17.1875 94.4375 -17.1875 94.4375 -20 96 C-20.763125 96.763125 -21.52625 97.52625 -22.3125 98.3125 C-26.85104811 102.85104811 -31.78618537 107.05818293 -38 109 C-35.37495846 106.29541174 -32.85715364 103.88857984 -29.875 101.5625 C-12.36248622 86.56265124 -1.67639408 62.86939219 0.23828125 40.17578125 C0.54195983 28.46018133 -1.50034974 15.86402045 -6 5 C-6 4.01 -6 3.02 -6 2 C-3 0 -3 0 0 0 Z " fill="#EFC653" transform="translate(190,94)"/>
<path d="M0 0 C0.99 0.99 1.98 1.98 3 3 C0.6373057 8.72020725 0.6373057 8.72020725 -2.5625 10.125 C-3.366875 10.41375 -4.17125 10.7025 -5 11 C-6.25827123 12.84982472 -6.25827123 12.84982472 -7 15 C-7.47759766 15.928125 -7.47759766 15.928125 -7.96484375 16.875 C-8.97046251 18.93936454 -9.68853198 20.93637842 -10.375 23.125 C-11.70317142 27.244354 -13.29533391 31.19057964 -15.03515625 35.15234375 C-18.00205751 43.90890658 -18.28584742 52.60167285 -18.40536499 61.77355957 C-18.67397974 79.86181639 -19.04748645 96.86229757 -28 113 C-29 111 -29 111 -28.0625 107.875 C-27.711875 106.92625 -27.36125 105.9775 -27 105 C-27.66 105 -28.32 105 -29 105 C-29.33 104.01 -29.66 103.02 -30 102 C-30.99 101.67 -31.98 101.34 -33 101 C-33.99 103.97 -34.98 106.94 -36 110 C-36.66 110 -37.32 110 -38 110 C-36.90778051 106.45028666 -35.60869847 103.14994906 -34 99.8125 C-29.06318329 88.6862234 -29.64314102 76.49047013 -29.54370117 64.55639648 C-29.46133547 56.23021985 -29.0934815 48.15486418 -27.58984375 39.94921875 C-27.46589737 39.26326126 -27.34195099 38.57730377 -27.21424866 37.87055969 C-26.88391529 36.23027956 -26.45104005 34.61127339 -26 33 C-25.01 32.505 -25.01 32.505 -24 32 C-22.51814694 28.93924556 -21.15428333 25.85369271 -19.83007812 22.72265625 C-17.84288139 18.23714345 -15.69259088 15.34065773 -12 12 C-10.95681971 10.96768791 -9.91931371 9.92961904 -8.88671875 8.88671875 C-5.92447917 5.92447917 -2.96223958 2.96223958 0 0 Z " fill="#F5AC41" transform="translate(99,78)"/>
<path d="M0 0 C-3 2 -3 2 -5.125 2.5 C-5.74375 2.665 -6.3625 2.83 -7 3 C-7.33 3.66 -7.66 4.32 -8 5 C-7.34 5 -6.68 5 -6 5 C-6 5.66 -6 6.32 -6 7 C-3.36 7 -0.72 7 2 7 C-0.77079887 10.80984844 -4.62868145 11.06840752 -9 12 C-8.2575 12.680625 -8.2575 12.680625 -7.5 13.375 C-6 15 -6 15 -6 17 C-5.41605469 17.27972656 -4.83210938 17.55945313 -4.23046875 17.84765625 C-2.14121992 18.9270405 -0.26126866 20.12606449 1.6875 21.4375 C11.54123825 27.65801633 21.76320233 28.13606943 33.125 28 C35.27338664 27.97445438 37.42183308 27.95343433 39.5703125 27.9375 C40.51664551 27.92589844 41.46297852 27.91429688 42.43798828 27.90234375 C45 28 45 28 47.15185547 28.62890625 C47.76174316 28.75136719 48.37163086 28.87382813 49 29 C49.99 28.34 50.98 27.68 52 27 C54.1875 27.375 54.1875 27.375 56 28 C56 28.66 56 29.32 56 30 C57.485 30.495 57.485 30.495 59 31 C58.34 31 57.68 31 57 31 C57.495 33.97 57.495 33.97 58 37 C57.36610352 36.98952637 56.73220703 36.97905273 56.07910156 36.96826172 C40.73162195 36.69087355 40.73162195 36.69087355 25.546875 38.60546875 C14.94122097 40.24836914 3.63769905 36.6673907 -5.1875 30.875 C-12.91732435 25.04962513 -20.52909394 17.65554061 -23 8 C-22.75 4.9375 -22.75 4.9375 -22 3 C-14.5866516 1.30316692 -7.65518028 -0.15310361 0 0 Z " fill="#09A57C" transform="translate(94,29)"/>
<path d="M0 0 C0.66 0.66 1.32 1.32 2 2 C1.92144971 4.67373119 1.71941317 7.17037535 1.375 9.8125 C1.23167236 10.95295776 1.23167236 10.95295776 1.08544922 12.11645508 C-0.17914195 21.32480252 -2.08493489 30.60616861 -8 38 C-8.33 37.34 -8.66 36.68 -9 36 C-11.15084582 36.81650845 -11.15084582 36.81650845 -11.875 38.875 C-13.23350933 41.44107318 -14.50649845 42.53323438 -17 44 C-18.32 44 -19.64 44 -21 44 C-21.33 43.01 -21.66 42.02 -22 41 C-19.6875 37.8125 -19.6875 37.8125 -17 35 C-16.34 35 -15.68 35 -15 35 C-10.75278022 27.41567897 -10.48627802 19.50986533 -10 11 C-23.3776697 13.94308733 -31.34951095 18.26470876 -41 28 C-41.33 28.66 -41.66 29.32 -42 30 C-42.66 30 -43.32 30 -44 30 C-43.01 26.535 -43.01 26.535 -42 23 C-42.66 23 -43.32 23 -44 23 C-44 22.01 -44 21.02 -44 20 C-45.32 20.33 -46.64 20.66 -48 21 C-43.7629056 11.53852707 -33.26551732 6.71186485 -24.17285156 2.81884766 C-16.6280613 -0.02443623 -7.91528189 -2.0310474 0 0 Z " fill="#A3D55F" transform="translate(209,23)"/>
<path d="M0 0 C1.32 0.33 2.64 0.66 4 1 C4 1.99 4 2.98 4 4 C4.66 4 5.32 4 6 4 C5.52229477 5.93786085 5.04278429 7.87527674 4.5625 9.8125 C4.29566406 10.89144531 4.02882813 11.97039062 3.75390625 13.08203125 C3.23922588 15.0740843 2.65062825 17.04811524 2 19 C1.40638554 24.40189159 1.22926624 28.63256913 3.9375 33.4375 C8.89474405 37.58539808 14.54578663 40.16719827 21 41 C21.6875 43.8125 21.6875 43.8125 22 47 C20.51953125 48.69921875 20.51953125 48.69921875 19 50 C28.0598059 50.12224626 36.97746114 49.83930594 46 49 C46 48.34 46 47.68 46 47 C46.99 47.33 47.98 47.66 49 48 C49.5775 47.855625 50.155 47.71125 50.75 47.5625 C53.84905413 46.78773647 56.82018489 46.93884971 60 47 C46.68605697 54.30836968 25.99190414 54.40988847 11.625 50.375 C3.0018971 47.13280432 -3.21795026 42.92026988 -8 35 C-10.74252307 26.77243078 -9.77181959 16.70079832 -6 9 C-5.01 9 -4.02 9 -3 9 C-2.01 6.03 -1.02 3.06 0 0 Z " fill="#F16D2D" transform="translate(66,179)"/>
<path d="M0 0 C3.23296336 0.06361824 3.95391365 0.18444271 6.5625 2.3125 C10.43234522 5.35309268 14.38716818 5.18857935 19.1875 5.375 C19.875 7.6875 19.875 7.6875 20.1875 10.375 C18.70703125 12.04296875 18.70703125 12.04296875 17.1875 13.375 C26.2473059 13.49724626 35.16496114 13.21430594 44.1875 12.375 C44.1875 11.715 44.1875 11.055 44.1875 10.375 C45.1775 10.705 46.1675 11.035 47.1875 11.375 C47.765 11.230625 48.3425 11.08625 48.9375 10.9375 C52.03655413 10.16273647 55.00768489 10.31384971 58.1875 10.375 C45.78302634 17.18413829 26.54262231 17.67643362 12.9609375 14.54296875 C9.93602915 13.6313993 7.07574348 12.64936186 4.1875 11.375 C3.43339844 11.065625 2.67929688 10.75625 1.90234375 10.4375 C0.1875 9.375 0.1875 9.375 -0.5625 6.25 C-0.645 5.30125 -0.7275 4.3525 -0.8125 3.375 C-2.4625 3.045 -4.1125 2.715 -5.8125 2.375 C-3.8125 0.375 -3.8125 0.375 0 0 Z " fill="#F35D25" transform="translate(67.8125,215.625)"/>
<path d="M0 0 C0.33 0 0.66 0 1 0 C1.34895491 5.58327855 0.66348376 10.0204434 -2 15 C-4.5 17.6875 -4.5 17.6875 -7 20 C-9.33084721 23.23661894 -9.33084721 23.23661894 -10 27 C-4.54912814 25.06428087 -4.54912814 25.06428087 -0.8125 20.875 C-0.544375 20.25625 -0.27625 19.6375 0 19 C0.66 19 1.32 19 2 19 C2 21.125 2 21.125 1 24 C-6.40784809 31.38937465 -16.72090309 34.50376774 -27 35 C-29.86328125 34.04296875 -29.86328125 34.04296875 -32 33 C-28.75611057 32.080898 -25.60648937 31.71720745 -22.25 31.4375 C-20.77273437 31.31181641 -20.77273437 31.31181641 -19.265625 31.18359375 C-18.51796875 31.12300781 -17.7703125 31.06242187 -17 31 C-17.495 30.54625 -17.99 30.0925 -18.5 29.625 C-20 28 -20 28 -20 26 C-26.6 26 -33.2 26 -40 26 C-39.34 24.35 -38.68 22.7 -38 21 C-37.67 21.66 -37.34 22.32 -37 23 C-37.33 23.66 -37.66 24.32 -38 25 C-20.94942116 24.06132834 -20.94942116 24.06132834 -6.5625 16 C-3.01991955 11.30736445 -1.56110291 5.59242161 0 0 Z " fill="#49B86A" transform="translate(198,40)"/>
<path d="M0 0 C2 1.375 2 1.375 4 3 C4 3.66 4 4.32 4 5 C4.58394531 5.27972656 5.16789062 5.55945312 5.76953125 5.84765625 C7.85878008 6.9270405 9.73873134 8.12606449 11.6875 9.4375 C21.54123825 15.65801633 31.76320233 16.13606943 43.125 16 C45.27338664 15.97445438 47.42183308 15.95343433 49.5703125 15.9375 C50.51664551 15.92589844 51.46297852 15.91429687 52.43798828 15.90234375 C55 16 55 16 57.15185547 16.62890625 C57.76174316 16.75136719 58.37163086 16.87382813 59 17 C59.99 16.34 60.98 15.68 62 15 C64.1875 15.375 64.1875 15.375 66 16 C66 16.66 66 17.32 66 18 C67.485 18.495 67.485 18.495 69 19 C68.34 19 67.68 19 67 19 C67.495 21.97 67.495 21.97 68 25 C67.33991943 24.99476318 66.67983887 24.98952637 65.99975586 24.98413086 C62.97901378 24.96321049 59.958287 24.9502922 56.9375 24.9375 C55.37999023 24.92493164 55.37999023 24.92493164 53.79101562 24.91210938 C48.41276931 24.89503558 43.29666789 25.04584848 38 26 C41.97134893 23.35243405 45.01803765 22.82204396 49.6875 22.4375 C50.68136719 22.35371094 51.67523438 22.26992188 52.69921875 22.18359375 C53.83810547 22.09271484 53.83810547 22.09271484 55 22 C55 20.68 55 19.36 55 18 C53.96875 18.350625 52.9375 18.70125 51.875 19.0625 C47.97102806 20.00700934 45.84772942 19.87448396 42 19 C41.01 19 40.02 19 39 19 C26.12558198 17.95575692 13.58020512 16.58020512 4 7 C3.34 7 2.68 7 2 7 C1.34 4.69 0.68 2.38 0 0 Z " fill="#2BB76A" transform="translate(84,41)"/>
<path d="M0 0 C12.72686763 0.53139322 22.36788703 5.64854428 31 15 C30.67 15.66 30.34 16.32 30 17 C29.071875 16.62875 28.14375 16.2575 27.1875 15.875 C26.135625 15.58625 25.08375 15.2975 24 15 C20.75150023 16.72226496 20.75150023 16.72226496 20 20 C19.13375 19.236875 18.2675 18.47375 17.375 17.6875 C11.48611781 12.7847278 5.92375694 10.86210768 -1.640625 10.90234375 C-3.24550781 10.90717773 -3.24550781 10.90717773 -4.8828125 10.91210938 C-5.99398437 10.92048828 -7.10515625 10.92886719 -8.25 10.9375 C-9.37664062 10.94201172 -10.50328125 10.94652344 -11.6640625 10.95117188 C-14.44276217 10.96294603 -17.22135409 10.9793916 -20 11 C-16.51949304 7.51949304 -11.98245668 7.8235615 -7.25 7.75 C1.78936361 7.80171261 11.40244177 9.13414726 20 12 C19.21869929 9.50447516 19.21869929 9.50447516 18 7 C17.01 6.67 16.02 6.34 15 6 C15 5.34 15 4.68 15 4 C13.87851563 3.81824219 13.87851563 3.81824219 12.734375 3.6328125 C11.74953125 3.46523438 10.7646875 3.29765625 9.75 3.125 C8.77546875 2.96257813 7.8009375 2.80015625 6.796875 2.6328125 C4.22735883 2.05144152 2.27928944 1.29159735 0 0 Z " fill="#67BF6A" transform="translate(114,27)"/>
<path d="M0 0 C5.55832302 1.30968378 10.62528562 3.111756 15.6875 5.75 C13.9375 9.625 13.9375 9.625 11.6875 10.75 C3.96656977 11.17894057 3.96656977 11.17894057 0.6875 8.75 C-0.5625 6.625 -0.5625 6.625 -1.3125 4.75 C-0.6525 4.09 0.0075 3.43 0.6875 2.75 C-2.34019315 1.88888484 -5.15516637 1.56769107 -8.296875 1.43359375 C-9.23144531 1.39169922 -10.16601562 1.34980469 -11.12890625 1.30664062 C-12.09699219 1.26732422 -13.06507813 1.22800781 -14.0625 1.1875 C-15.04605469 1.14431641 -16.02960938 1.10113281 -17.04296875 1.05664062 C-19.46601275 0.95077948 -21.8891554 0.84869829 -24.3125 0.75 C-17.6269213 -3.70705246 -7.52520809 -1.49686204 0 0 Z " fill="#E1D75B" transform="translate(150.3125,66.25)"/>
<path d="M0 0 C0.66 0.33 1.32 0.66 2 1 C1.34 2.32 0.68 3.64 0 5 C0.55461914 5.00410889 1.10923828 5.00821777 1.68066406 5.01245117 C4.204844 5.04544181 6.72662696 5.11608378 9.25 5.1875 C10.12269531 5.19330078 10.99539062 5.19910156 11.89453125 5.20507812 C18.41598332 5.42909747 18.41598332 5.42909747 21.609375 8.55078125 C22.06828125 9.35902344 22.5271875 10.16726562 23 11 C17.09876226 13.7866956 11.2522939 13.16720369 5 12 C2.08130514 10.89767946 -0.30601225 9.60603116 -3 8 C-2.01 5.36 -1.02 2.72 0 0 Z " fill="#34C06B" transform="translate(159,60)"/>
<path d="M0 0 C1.16254824 3.55672838 0.92305475 6.55489943 0.5859375 10.2578125 C0.05795092 16.77751903 -0.16041213 23.26100742 -0.2902832 29.79931641 C-0.93107475 62.03351529 -0.93107475 62.03351529 -8 72 C-8.71573527 73.64619113 -9.4025696 75.30728055 -10 77 C-10.66 77 -11.32 77 -12 77 C-10.90778051 73.45028666 -9.60869847 70.14994906 -8 66.8125 C-3.06318329 55.6862234 -3.64314102 43.49047013 -3.54370117 31.55639648 C-3.43651372 20.72104106 -2.34449702 10.58575928 0 0 Z " fill="#E09E4F" transform="translate(73,111)"/>
<path d="M0 0 C1.5398338 5.4669459 -0.36712389 9.9773095 -3.0234375 14.89453125 C-3.36632812 15.46558594 -3.70921875 16.03664062 -4.0625 16.625 C-6.14727284 19.92626096 -6.14727284 19.92626096 -7 23.6875 C-8.08813243 27.29193869 -9.36128093 28.44923823 -12 31 C-12 32.32 -12 33.64 -12 35 C-14.1875 36.4375 -14.1875 36.4375 -17 38 C-17.763125 38.763125 -18.52625 39.52625 -19.3125 40.3125 C-23.85104811 44.85104811 -28.78618537 49.05818293 -35 51 C-32.37495846 48.29541174 -29.85715364 45.88857984 -26.875 43.5625 C-13.88633043 32.43742215 -4.95794065 16.16260482 0 0 Z " fill="#D7A058" transform="translate(187,152)"/>
<path d="M0 0 C0.33 0 0.66 0 1 0 C1.83566868 46.27033187 1.83566868 46.27033187 -8 64 C-9 62 -9 62 -8.0625 58.875 C-7.711875 57.92625 -7.36125 56.9775 -7 56 C-7.66 56 -8.32 56 -9 56 C-8.67 55.01 -8.34 54.02 -8 53 C-7.34 53.33 -6.68 53.66 -6 54 C-5.51460131 52.16830682 -5.03702814 50.33453941 -4.5625 48.5 C-4.29566406 47.4790625 -4.02882813 46.458125 -3.75390625 45.40625 C-1.6553445 35.92466533 -1.69175479 26.34850745 -1.44775391 16.6796875 C-1.39587785 14.67698614 -1.33863536 12.67442606 -1.28125 10.671875 C-1.23581055 8.89441895 -1.23581055 8.89441895 -1.18945312 7.08105469 C-1.03370781 4.54818632 -0.735719 2.41417106 0 0 Z " fill="#DC994A" transform="translate(79,127)"/>
<path d="M0 0 C-3 2 -3 2 -5.125 2.5 C-5.74375 2.665 -6.3625 2.83 -7 3 C-7.33 3.66 -7.66 4.32 -8 5 C-7.34 5 -6.68 5 -6 5 C-6 5.66 -6 6.32 -6 7 C-3.36 7 -0.72 7 2 7 C-0.4453385 9.96527758 -2.44602347 10.55582214 -6.1875 11.1875 C-7.08855469 11.34605469 -7.98960938 11.50460938 -8.91796875 11.66796875 C-9.60503906 11.77753906 -10.29210937 11.88710938 -11 12 C-10.67 10.68 -10.34 9.36 -10 8 C-10.66 7.67 -11.32 7.34 -12 7 C-12 6.01 -12 5.02 -12 4 C-13.11375 4.165 -14.2275 4.33 -15.375 4.5 C-19 5 -19 5 -21 5 C-20.71125 5.75925781 -20.4225 6.51851562 -20.125 7.30078125 C-19.75375 8.29464844 -19.3825 9.28851563 -19 10.3125 C-18.62875 11.29863281 -18.2575 12.28476562 -17.875 13.30078125 C-17 16 -17 16 -17 19 C-23 10.27675277 -23 10.27675277 -23 5 C-21.26446148 2.50669115 -20.08276814 2.02091573 -17.109375 1.26953125 C-5.79617834 -0.26958969 -5.79617834 -0.26958969 0 0 Z " fill="#2DA66F" transform="translate(94,29)"/>
<path d="M0 0 C0 0.66 0 1.32 0 2 C0.33 2.99 0.66 3.98 1 5 C0.34 5 -0.32 5 -1 5 C-1.23074219 5.73347656 -1.46148437 6.46695313 -1.69921875 7.22265625 C-3.24719132 10.52778688 -5.02933449 12.09663665 -7.8125 14.4375 C-11.63643373 17.74677984 -14.92125645 20.99763338 -18 25 C-18.83252231 22.66893752 -19.15242486 21.42956098 -18.3125 19.0625 C-16.68777833 16.50936595 -15.05115765 14.23214215 -13 12 C-12.29875 11.855625 -11.5975 11.71125 -10.875 11.5625 C-10.25625 11.376875 -9.6375 11.19125 -9 11 C-7.59155349 8.10809595 -7.59155349 8.10809595 -7 5 C-7.33 4.34 -7.66 3.68 -8 3 C-6.14481495 -0.71037009 -3.79223618 -1.26407873 0 0 Z " fill="#F5CB4F" transform="translate(108,75)"/>
<path d="M0 0 C2.52167668 1.56517863 2.85234811 3.38170889 3.8125 6.125 C4.4725 6.455 5.1325 6.785 5.8125 7.125 C5.33039063 7.66769531 4.84828125 8.21039063 4.3515625 8.76953125 C3.71992188 9.48496094 3.08828125 10.20039062 2.4375 10.9375 C1.81101563 11.64519531 1.18453125 12.35289063 0.5390625 13.08203125 C-1.328099 15.21303819 -1.328099 15.21303819 -3.1875 18.125 C-3.8475 18.125 -4.5075 18.125 -5.1875 18.125 C-4.5275 15.815 -3.8675 13.505 -3.1875 11.125 C-3.8475 11.125 -4.5075 11.125 -5.1875 11.125 C-5.1875 10.135 -5.1875 9.145 -5.1875 8.125 C-6.5075 8.455 -7.8275 8.785 -9.1875 9.125 C-7.53080015 5.05855491 -4.72486462 0.26999226 0 0 Z " fill="#81CF60" transform="translate(170.1875,34.875)"/>
<path d="M0 0 C1.31626692 3.61973402 2 6.09567131 2 10 C-0.90600261 11.25664978 -2.79604584 12 -6 12 C-9 5.5 -9 5.5 -9 1 C-6.04335481 -0.4783226 -3.25770263 -0.06032783 0 0 Z " fill="#11AD75" transform="translate(82,33)"/>
<path d="M0 0 C6.75 0.875 6.75 0.875 9 2 C11.77722202 2.26562166 14.52865173 2.4731176 17.3125 2.625 C18.51688721 2.69255493 18.51688721 2.69255493 19.74560547 2.76147461 C26.58021644 3.08858385 33.19608342 2.78136851 40 2 C40 1.34 40 0.68 40 0 C40.99 0.33 41.98 0.66 43 1 C43.5775 0.855625 44.155 0.71125 44.75 0.5625 C47.84905413 -0.21226353 50.82018489 -0.06115029 54 0 C41.58884522 6.81280573 22.20051537 7.362766 8.6328125 4.09765625 C5.67881962 3.1894812 2.83760861 2.22000831 0 1 C0 0.67 0 0.34 0 0 Z " fill="#D25C2D" transform="translate(72,226)"/>
<path d="M0 0 C0.33 0.66 0.66 1.32 1 2 C-3.97101651 10.11296826 -9.10189883 17.58561189 -15.875 24.3125 C-16.4218042 24.85672607 -16.9686084 25.40095215 -17.53198242 25.96166992 C-20.16416356 28.49655806 -22.58133292 30.63748776 -26 32 C-25.8125 29.6875 -25.8125 29.6875 -25 27 C-22.5625 25.375 -22.5625 25.375 -20 24 C-19.34 23.01 -18.68 22.02 -18 21 C-17.01 21 -16.02 21 -15 21 C-15 20.01 -15 19.02 -15 18 C-13.67732273 16.98594743 -12.34275169 15.98731742 -11 15 C-9.7483533 12.91665365 -9.7483533 12.91665365 -9 11 C-8.34 11 -7.68 11 -7 11 C-6.731875 10.278125 -6.46375 9.55625 -6.1875 8.8125 C-3.12676056 1.56338028 -3.12676056 1.56338028 0 0 Z " fill="#DF9A4B" transform="translate(187,176)"/>
<path d="M0 0 C0.66 0.66 1.32 1.32 2 2 C1.81870815 4.92991019 1.53430659 7.72692113 1.125 10.625 C1.02058594 11.42679688 0.91617188 12.22859375 0.80859375 13.0546875 C0.54890412 15.03777197 0.27571688 17.01908028 0 19 C-0.66 19 -1.32 19 -2 19 C-1.67 13.72 -1.34 8.44 -1 3 C-5.26266452 1.93433387 -8.60480504 2.20153459 -12.875 2.75 C-13.56980469 2.82476563 -14.26460937 2.89953125 -14.98046875 2.9765625 C-18.55741662 3.42115489 -20.98325006 3.99156478 -24.2578125 5.640625 C-27 7 -27 7 -29.375 6.6875 C-29.91125 6.460625 -30.4475 6.23375 -31 6 C-25.36766056 3.08325279 -20.00370929 1.38036052 -13.8125 0.1875 C-13.13574219 0.05174561 -12.45898438 -0.08400879 -11.76171875 -0.22387695 C-7.58099215 -0.97548552 -4.1158992 -1.09147549 0 0 Z " fill="#C1CE70" transform="translate(209,23)"/>
<path d="M0 0 C8.91 0 17.82 0 27 0 C27 0.66 27 1.32 27 2 C27.515625 2.103125 28.03125 2.20625 28.5625 2.3125 C31.86789172 3.24478997 34.89628829 4.53598504 38 6 C38.495 6.99 38.495 6.99 39 8 C38.443125 7.80664062 37.88625 7.61328125 37.3125 7.4140625 C36.549375 7.15367188 35.78625 6.89328125 35 6.625 C34.2575 6.36976562 33.515 6.11453125 32.75 5.8515625 C25.75044375 3.68408628 19.80493528 2.70110853 12.5 2.8125 C11.69691406 2.81314453 10.89382812 2.81378906 10.06640625 2.81445312 C4.96633838 2.85164973 0.04817625 3.27635088 -5 4 C-5 3.34 -5 2.68 -5 2 C-3.35 2 -1.7 2 0 2 C0 1.34 0 0.68 0 0 Z " fill="#E1C86D" transform="translate(124,73)"/>
<path d="M0 0 C2 1.375 2 1.375 4 3 C4 3.66 4 4.32 4 5 C4.58394531 5.27972656 5.16789062 5.55945312 5.76953125 5.84765625 C7.85878008 6.9270405 9.73873134 8.12606449 11.6875 9.4375 C19.37180999 14.28848899 27.79585318 16.14625885 36.8359375 16.09765625 C38.43115234 16.09282227 38.43115234 16.09282227 40.05859375 16.08789062 C41.15300781 16.07951172 42.24742188 16.07113281 43.375 16.0625 C44.49261719 16.05798828 45.61023438 16.05347656 46.76171875 16.04882812 C49.50786804 16.03709244 52.25390586 16.02067363 55 16 C55 16.33 55 16.66 55 17 C21.13468787 19.84326459 21.13468787 19.84326459 7 10 C6.46503906 9.4534375 5.93007812 8.906875 5.37890625 8.34375 C4.082169 6.76736063 4.082169 6.76736063 2 7 C1.34 4.69 0.68 2.38 0 0 Z " fill="#28946F" transform="translate(84,41)"/>
<path d="M0 0 C0.51046875 0.39832031 1.0209375 0.79664063 1.546875 1.20703125 C1.216875 2.19703125 0.886875 3.18703125 0.546875 4.20703125 C-0.319375 3.44390625 -1.185625 2.68078125 -2.078125 1.89453125 C-7.96700719 -3.00824095 -13.52936806 -4.93086107 -21.09375 -4.890625 C-22.69863281 -4.88579102 -22.69863281 -4.88579102 -24.3359375 -4.88085938 C-25.44710937 -4.87248047 -26.55828125 -4.86410156 -27.703125 -4.85546875 C-28.82976562 -4.85095703 -29.95640625 -4.84644531 -31.1171875 -4.84179688 C-33.89588717 -4.83002272 -36.67447909 -4.81357715 -39.453125 -4.79296875 C-30.28842286 -13.95767089 -8.80005117 -6.41280325 0 0 Z " fill="#5DAD71" transform="translate(133.453125,42.79296875)"/>
<path d="M0 0 C0 0.66 0 1.32 0 2 C-9.85100997 4.44205709 -18.87128027 5.99869395 -29 4 C-29.33 3.34 -29.66 2.68 -30 2 C-28.69804688 1.93941406 -27.39609375 1.87882813 -26.0546875 1.81640625 C-24.32811601 1.73195438 -22.601554 1.64730874 -20.875 1.5625 C-20.0190625 1.52318359 -19.163125 1.48386719 -18.28125 1.44335938 C-12.15413982 1.13700387 -6.1180523 -0.17994271 0 0 Z " fill="#D96A36" transform="translate(117,219)"/>
<path d="M0 0 C0.33 0 0.66 0 1 0 C1.34945411 5.59126581 0.65314677 10.00955727 -2 15 C-4.4375 17.75 -4.4375 17.75 -7 20 C-7.639375 20.78375 -8.27875 21.5675 -8.9375 22.375 C-11 24 -11 24 -14.25 23.75 C-15.1575 23.5025 -16.065 23.255 -17 23 C-15.04297985 21.6953199 -13.06417543 20.42257633 -11.0625 19.1875 C-4.05007546 14.17862533 -2.39597379 7.99082747 0 0 Z " fill="#7DBB6D" transform="translate(198,40)"/>
<path d="M0 0 C0.66 0.33 1.32 0.66 2 1 C1.48050781 1.49628906 0.96101563 1.99257812 0.42578125 2.50390625 C-7.37776708 10.10551433 -11.63701472 16.98196301 -15.66796875 27.0859375 C-17 30 -17 30 -19 31 C-17.42358361 18.11952465 -8.77716925 8.80891308 0 0 Z " fill="#D8B96D" transform="translate(93,80)"/>
<path d="M0 0 C-0.66386719 0.58007812 -1.32773438 1.16015625 -2.01171875 1.7578125 C-6.73205385 5.93375859 -11.15424345 10.00051649 -15 15 C-15.83252231 12.66893752 -16.15242486 11.42956098 -15.3125 9.0625 C-11.774239 3.50237557 -7.29748315 -2.43249438 0 0 Z " fill="#E5BE5B" transform="translate(105,85)"/>
<path d="M0 0 C1.27682239 3.83046718 0.27438647 5.23185007 -1 9 C-1.84441946 16.91397775 -1.59364673 23.3647325 3 30 C5.06794696 30.7418495 5.06794696 30.7418495 7 31 C7.33 32.65 7.66 34.3 8 36 C3.2230166 33.67975092 0.64745797 30.48031349 -2 26 C-4.74252307 17.77243078 -3.77181959 7.70079832 0 0 Z " fill="#D06137" transform="translate(60,188)"/>
<path d="M0 0 C1.32 0 2.64 0 4 0 C4 0.66 4 1.32 4 2 C14.13520789 5.51916941 23.26727056 7.37828701 34 8 C34 8.33 34 8.66 34 9 C23.19374113 11.04946289 12.38955511 8.66916535 3 3 C1.97569138 2.02491444 0.96879547 1.03025984 0 0 Z " fill="#238B74" transform="translate(88,58)"/>
<path d="M0 0 C0.33 0 0.66 0 1 0 C0.96075586 8.69257675 -2.07924272 15.35032677 -6 23 C-7 21 -7 21 -6.0625 17.875 C-5.711875 16.92625 -5.36125 15.9775 -5 15 C-5.66 15 -6.32 15 -7 15 C-6.67 14.01 -6.34 13.02 -6 12 C-5.34 12.33 -4.68 12.66 -4 13 C-3.79503906 12.14535156 -3.59007813 11.29070312 -3.37890625 10.41015625 C-3.10949219 9.30542969 -2.84007813 8.20070312 -2.5625 7.0625 C-2.29566406 5.96035156 -2.02882813 4.85820312 -1.75390625 3.72265625 C-1 1 -1 1 0 0 Z " fill="#D88242" transform="translate(77,168)"/>
<path d="M0 0 C2.97595467 2.55081829 4.44002566 5.43434437 6 9 C6 9.99 6 10.98 6 12 C6.66 12 7.32 12 8 12 C8.433125 10.5459375 8.433125 10.5459375 8.875 9.0625 C10 6 10 6 12 5 C11.91291331 6.45945288 11.80473093 7.91765868 11.6875 9.375 C11.62949219 10.18710937 11.57148438 10.99921875 11.51171875 11.8359375 C11 14 11 14 8 16 C7.01 15.67 6.02 15.34 5 15 C5 13.68 5 12.36 5 11 C4.34 11 3.68 11 3 11 C0.85714286 3.57142857 0.85714286 3.57142857 0 0 Z " fill="#53B46E" transform="translate(145,44)"/>
<path d="M0 0 C-0.66 0 -1.32 0 -2 0 C-2 0.66 -2 1.32 -2 2 C-3.0725 2.61875 -4.145 3.2375 -5.25 3.875 C-11.79124773 7.7456304 -16.78610137 13.55147593 -22 19 C-22 16 -22 16 -20.609375 14.3515625 C-19.99578125 13.78179687 -19.3821875 13.21203125 -18.75 12.625 C-16.60971706 10.59151761 -14.82339422 8.76072765 -13.0625 6.375 C-9.65338638 2.44935401 -5.25776577 -1.75258859 0 0 Z " fill="#E6C55F" transform="translate(109,72)"/>
<path d="M0 0 C-0.28127421 1.48117801 -0.57533732 2.95993249 -0.875 4.4375 C-1.11863281 5.67306641 -1.11863281 5.67306641 -1.3671875 6.93359375 C-1.57601562 7.61550781 -1.78484375 8.29742187 -2 9 C-2.99 9.495 -2.99 9.495 -4 10 C-4 7.36 -4 4.72 -4 2 C-4.83144531 2.22816406 -5.66289062 2.45632812 -6.51953125 2.69140625 C-8.14955078 3.12259766 -8.14955078 3.12259766 -9.8125 3.5625 C-11.43091797 3.99755859 -11.43091797 3.99755859 -13.08203125 4.44140625 C-16 5 -16 5 -19 4 C-17.35 3.67 -15.7 3.34 -14 3 C-14 2.34 -14 1.68 -14 1 C-9.32798795 -0.20568053 -4.78503708 -0.09382426 0 0 Z " fill="#B1C86E" transform="translate(203,32)"/>
<path d="M0 0 C0.33 0.66 0.66 1.32 1 2 C0.109375 4.14453125 0.109375 4.14453125 -1.25 6.8125 C-4.20652112 13.0220179 -5.6850325 19.27549139 -7 26 C-7.33 26 -7.66 26 -8 26 C-8.67692367 17.53845415 -6.73375111 8.10062667 -2 1 C-1.34 0.67 -0.68 0.34 0 0 Z " fill="#DAAD5F" transform="translate(88,100)"/>
<path d="M0 0 C0.33 0 0.66 0 1 0 C1.40919626 10.02530833 -1.36408696 17.20592067 -6 26 C-6.66 26 -7.32 26 -8 26 C-6.90778051 22.45028666 -5.60869847 19.14994906 -4 15.8125 C-1.66618771 10.70946268 -0.78507581 5.52652054 0 0 Z " fill="#D5844B" transform="translate(69,162)"/>
<path d="M0 0 C5.81976308 6.44330912 8.37833483 13.45210395 9 22 C8.34 22 7.68 22 7 22 C6.86722656 21.32453125 6.73445312 20.6490625 6.59765625 19.953125 C6.42105469 19.06109375 6.24445313 18.1690625 6.0625 17.25 C5.88847656 16.36828125 5.71445313 15.4865625 5.53515625 14.578125 C5.07631512 12.36764947 4.56663926 10.18487932 4 8 C3.34 8 2.68 8 2 8 C2 7.34 2 6.68 2 6 C1.34 6 0.68 6 0 6 C0 4.02 0 2.04 0 0 Z " fill="#DEC969" transform="translate(190,93)"/>
<path d="M0 0 C0.33 0.66 0.66 1.32 1 2 C-0.41097867 4.45669355 -1.86043594 6.77914624 -3.4375 9.125 C-4.0881543 10.11306641 -4.0881543 10.11306641 -4.75195312 11.12109375 C-5.82749114 12.75212943 -6.91284486 14.37668453 -8 16 C-8.99 15.67 -9.98 15.34 -11 15 C-10.34 13.68 -9.68 12.36 -9 11 C-8.34 11 -7.68 11 -7 11 C-6.731875 10.278125 -6.46375 9.55625 -6.1875 8.8125 C-3.12676056 1.56338028 -3.12676056 1.56338028 0 0 Z " fill="#E4AA51" transform="translate(187,176)"/>
<path d="M0 0 C6.625 -0.125 6.625 -0.125 10 1 C10 1.66 10 2.32 10 3 C10.61875 3.12375 11.2375 3.2475 11.875 3.375 C14 4 14 4 16 6 C12.7 5.67 9.4 5.34 6 5 C6.33 4.34 6.66 3.68 7 3 C4.69 2.67 2.38 2.34 0 2 C0 1.34 0 0.68 0 0 Z " fill="#27BA6D" transform="translate(160,67)"/>
<path d="M0 0 C0.66 0.33 1.32 0.66 2 1 C1.34 2.32 0.68 3.64 0 5 C2.97 5.33 5.94 5.66 9 6 C9 6.33 9 6.66 9 7 C6.36 7 3.72 7 1 7 C1 7.66 1 8.32 1 9 C3.64 9 6.28 9 9 9 C8.01 10.485 8.01 10.485 7 12 C5.51800098 11.55090939 4.03944764 11.09043436 2.5625 10.625 C1.73878906 10.36976562 0.91507813 10.11453125 0.06640625 9.8515625 C-2 9 -2 9 -3 7 C-2.06421005 4.64018187 -1.06652192 2.30368736 0 0 Z " fill="#3DB966" transform="translate(159,60)"/>
<path d="M0 0 C0.99 0.33 1.98 0.66 3 1 C3.86625 0.7834375 3.86625 0.7834375 4.75 0.5625 C7.84905413 -0.21226353 10.82018489 -0.06115029 14 0 C10.51086564 1.9962709 7.04183975 2.79109218 3.125 3.625 C1.93132812 3.88539063 0.73765625 4.14578125 -0.4921875 4.4140625 C-3.74466875 4.95735001 -6.71170995 5.11061526 -10 5 C-10 4.67 -10 4.34 -10 4 C-6.7 3.34 -3.4 2.68 0 2 C0 1.34 0 0.68 0 0 Z " fill="#D06938" transform="translate(112,226)"/>
<path d="M0 0 C2.13245723 6.51421867 -1.80382711 12.77050745 -4.6875 18.5625 C-5.45232941 20.04478001 -6.22099321 21.52512154 -7 23 C-7.66 23 -8.32 23 -9 23 C-7.50915689 17.98534591 -5.3657537 13.37196892 -3.17578125 8.63671875 C-1.91525227 5.8099511 -0.88201223 2.96676839 0 0 Z " fill="#D7B065" transform="translate(187,152)"/>
<path d="M0 0 C0.33 0.66 0.66 1.32 1 2 C1.99 1.67 2.98 1.34 4 1 C4 2.32 4 3.64 4 5 C4.66 5 5.32 5 6 5 C5.67 5.66 5.34 6.32 5 7 C3.34385343 7.38218767 1.67542976 7.71395102 0 8 C-0.99 8.495 -0.99 8.495 -2 9 C-2.125 5.625 -2.125 5.625 -2 2 C-1.34 1.34 -0.68 0.68 0 0 Z " fill="#38BF69" transform="translate(144,50)"/>
<path d="M0 0 C0.66 0 1.32 0 2 0 C2 2.125 2 2.125 1 5 C-2.31099651 8.10313126 -5.68632331 10.56210777 -10 12 C-10 11.34 -10 10.68 -10 10 C-9.34 10 -8.68 10 -8 10 C-8 9.34 -8 8.68 -8 8 C-7.05125 7.38125 -6.1025 6.7625 -5.125 6.125 C-2.17758128 4.12075527 -1.16146167 3.25209269 0 0 Z " fill="#6DBA6C" transform="translate(198,59)"/>
<path d="M0 0 C2 0.125 2 0.125 4 1 C5.25 3.0625 5.25 3.0625 6 5 C3.23735711 5.59732819 0.83967231 6 -2 6 C-2 2 -2 2 0 0 Z " fill="#46C367" transform="translate(142,46)"/>
<path d="M0 0 C0.67482422 0.59748047 0.67482422 0.59748047 1.36328125 1.20703125 C6.86078784 5.73503768 12.07404747 7.54860554 19 9 C19 9.33 19 9.66 19 10 C14.22408015 10.71788357 10.50410453 10.96456484 6.33203125 8.2890625 C4.05663819 6.28498021 1.93871146 4.33207321 0 2 C0 1.34 0 0.68 0 0 Z " fill="#CE623A" transform="translate(68,211)"/>
<path d="M0 0 C0 0.66 0 1.32 0 2 C-5.26441613 6.075677 -12.43658579 7.42344608 -19 7 C-15.55641886 5.18491044 -12.0046762 3.7760714 -8.375 2.375 C-7.22773438 1.92898437 -6.08046875 1.48296875 -4.8984375 1.0234375 C-2 0 -2 0 0 0 Z " fill="#D37A44" transform="translate(136,212)"/>
<path d="M0 0 C1.22685659 3.68056978 0.62128576 4.85171895 -0.6875 8.4375 C-1.02136719 9.38496094 -1.35523438 10.33242188 -1.69921875 11.30859375 C-3.08593756 14.17781074 -4.63448909 15.89345028 -7 18 C-6.3759217 15.10479138 -5.45167084 12.73559274 -4.0625 10.125 C-2.36390224 6.82663198 -1.06878541 3.56261805 0 0 Z " fill="#98C271" transform="translate(207,43)"/>
<path d="M0 0 C4.55737263 0.43820891 7.57653445 0.85041169 11 4 C8.36749612 5.31625194 7.19820944 4.74813658 4.375 4.0625 C3.14910156 3.77052734 3.14910156 3.77052734 1.8984375 3.47265625 C0.95871094 3.23869141 0.95871094 3.23869141 0 3 C0 2.01 0 1.02 0 0 Z " fill="#E7DD5C" transform="translate(155,69)"/>
<path d="M0 0 C0.99 0 1.98 0 3 0 C3 0.99 3 1.98 3 3 C1.35443434 4.03435556 -0.3170608 5.02763513 -2 6 C-3.7041054 7.62836738 -5.38025441 9.28769752 -7 11 C-5.50897439 6.39137539 -3.30545582 3.46669756 0 0 Z " fill="#F1A746" transform="translate(172,184)"/>
<path d="M0 0 C0.66 0.33 1.32 0.66 2 1 C1.50628906 1.48210938 1.01257813 1.96421875 0.50390625 2.4609375 C-0.13675781 3.09257813 -0.77742187 3.72421875 -1.4375 4.375 C-2.07558594 5.00148438 -2.71367187 5.62796875 -3.37109375 6.2734375 C-5.07882176 7.91723061 -5.07882176 7.91723061 -6 10 C-6.66 10 -7.32 10 -8 10 C-6.5682479 4.98886765 -4.01554307 3.05530451 0 0 Z " fill="#7EBA73" transform="translate(173,43)"/>
<path d="M0 0 C1.38294718 0.01329757 2.76582404 0.03715018 4.1484375 0.0703125 C4.85484375 0.07933594 5.56125 0.08835938 6.2890625 0.09765625 C8.03399848 0.12123647 9.77876045 0.15710789 11.5234375 0.1953125 C6.27338455 2.86390788 3.40556996 3.32167829 -2.4765625 2.1953125 C-3.4665625 2.1953125 -4.4565625 2.1953125 -5.4765625 2.1953125 C-3.4765625 0.1953125 -3.4765625 0.1953125 0 0 Z " fill="#21AE71" transform="translate(128.4765625,57.8046875)"/>
<path d="M0 0 C0 0.66 0 1.32 0 2 C-0.66 2 -1.32 2 -2 2 C-2 2.66 -2 3.32 -2 4 C-2.66 4 -3.32 4 -4 4 C-4.33 5.32 -4.66 6.64 -5 8 C-6.32 8.33 -7.64 8.66 -9 9 C-7.45665977 5.21180126 -4.44676575 0 0 0 Z " fill="#89BC74" transform="translate(170,35)"/>
<path d="M0 0 C0.33 0.66 0.66 1.32 1 2 C-0.25 5.0625 -0.25 5.0625 -2 8 C-2.99 8.33 -3.98 8.66 -5 9 C-4.45276317 5.62537285 -3.9451 3.91765 -2 1 C-1.34 0.67 -0.68 0.34 0 0 Z " fill="#E3B65D" transform="translate(88,100)"/>
<path d="M0 0 C-1.25125384 3.75376152 -2.5652404 4.24073289 -6 6 C-6.66 6 -7.32 6 -8 6 C-6.98565881 3.46414701 -6.34981128 2.21863205 -4 0.75 C-2 0 -2 0 0 0 Z " fill="#6EC16A" transform="translate(165,43)"/>
<path d="M0 0 C3.45281166 1.15093722 4.38082163 2.3205993 6.6875 5.0625 C7.31011719 5.79597656 7.93273437 6.52945313 8.57421875 7.28515625 C9.04472656 7.85105469 9.51523438 8.41695312 10 9 C7 9 7 9 5.17578125 7.5390625 C4.56089844 6.90742187 3.94601563 6.27578125 3.3125 5.625 C2.68988281 4.99851562 2.06726563 4.37203125 1.42578125 3.7265625 C0 2 0 2 0 0 Z " fill="#1C886F" transform="translate(78,48)"/>
<path d="M0 0 C0.66 0 1.32 0 2 0 C1.55090939 1.48199902 1.09043436 2.96055236 0.625 4.4375 C0.36976562 5.26121094 0.11453125 6.08492188 -0.1484375 6.93359375 C-1 9 -1 9 -3 10 C-2.49287967 6.28111761 -1.88391785 3.26545761 0 0 Z " fill="#DFB464" transform="translate(77,101)"/>
<path d="M0 0 C0.53625 0.2475 1.0725 0.495 1.625 0.75 C-3.55078125 3.97265625 -3.55078125 3.97265625 -5.375 4.75 C-6.365 4.42 -7.355 4.09 -8.375 3.75 C-2.95961538 -0.31153846 -2.95961538 -0.31153846 0 0 Z " fill="#D2824A" transform="translate(147.375,216.25)"/>
<path d="M0 0 C6.625 0.75 6.625 0.75 10 3 C7.13822943 4.43088528 5.06624227 3.59991697 2 3 C2 2.34 2 1.68 2 1 C1.34 0.67 0.68 0.34 0 0 Z " fill="#6AC765" transform="translate(119,29)"/>
<path d="M0 0 C1.9375 0.5 1.9375 0.5 4 2 C4.68790422 4.69658452 4.81946464 7.2017019 5 10 C0 2.5 0 2.5 0 0 Z " fill="#D8C469" transform="translate(182,98)"/>
</svg>
